<mxfile host="app.diagrams.net" modified="2020-07-17T10:59:09.881Z" agent="5.0 (Windows)" etag="wJ4Arfw69i8R0GYeLi06" version="13.4.4" type="github">
  <diagram id="C5RBs43oDa-KdzZeNtuy" name="Page-1">
    <mxGraphModel dx="22851" dy="15374" grid="1" gridSize="10" guides="1" tooltips="1" connect="1" arrows="1" fold="1" page="1" pageScale="1" pageWidth="827" pageHeight="1169" math="0" shadow="0">
      <root>
        <mxCell id="WIyWlLk6GJQsqaUBKTNV-0" />
        <mxCell id="WIyWlLk6GJQsqaUBKTNV-1" parent="WIyWlLk6GJQsqaUBKTNV-0" />
        <mxCell id="mar_4wM57sWkOd30tIHt-65" value="" style="rounded=0;whiteSpace=wrap;html=1;glass=0;sketch=0;strokeColor=#000000;strokeWidth=2;fillColor=none;" vertex="1" parent="WIyWlLk6GJQsqaUBKTNV-1">
          <mxGeometry x="-9240" y="-6810" width="10190" height="4340" as="geometry" />
        </mxCell>
        <mxCell id="WIyWlLk6GJQsqaUBKTNV-2" value="" style="rounded=0;html=1;jettySize=auto;orthogonalLoop=1;fontSize=11;endArrow=block;endFill=0;endSize=8;strokeWidth=1;shadow=0;labelBackgroundColor=none;edgeStyle=orthogonalEdgeStyle;" parent="WIyWlLk6GJQsqaUBKTNV-1" source="WIyWlLk6GJQsqaUBKTNV-3" target="WIyWlLk6GJQsqaUBKTNV-6" edge="1">
          <mxGeometry relative="1" as="geometry" />
        </mxCell>
        <mxCell id="WIyWlLk6GJQsqaUBKTNV-4" value="Yes" style="rounded=0;html=1;jettySize=auto;orthogonalLoop=1;fontSize=11;endArrow=block;endFill=0;endSize=8;strokeWidth=1;shadow=0;labelBackgroundColor=none;edgeStyle=orthogonalEdgeStyle;" parent="WIyWlLk6GJQsqaUBKTNV-1" source="WIyWlLk6GJQsqaUBKTNV-6" target="WIyWlLk6GJQsqaUBKTNV-10" edge="1">
          <mxGeometry y="20" relative="1" as="geometry">
            <mxPoint as="offset" />
          </mxGeometry>
        </mxCell>
        <mxCell id="WIyWlLk6GJQsqaUBKTNV-5" value="No" style="edgeStyle=orthogonalEdgeStyle;rounded=0;html=1;jettySize=auto;orthogonalLoop=1;fontSize=11;endArrow=block;endFill=0;endSize=8;strokeWidth=1;shadow=0;labelBackgroundColor=none;" parent="WIyWlLk6GJQsqaUBKTNV-1" source="WIyWlLk6GJQsqaUBKTNV-6" target="WIyWlLk6GJQsqaUBKTNV-7" edge="1">
          <mxGeometry y="10" relative="1" as="geometry">
            <mxPoint as="offset" />
          </mxGeometry>
        </mxCell>
        <mxCell id="WIyWlLk6GJQsqaUBKTNV-6" value="Lamp&lt;br&gt;plugged in?" style="rhombus;whiteSpace=wrap;html=1;shadow=0;fontFamily=Helvetica;fontSize=12;align=center;strokeWidth=1;spacing=6;spacingTop=-4;" parent="WIyWlLk6GJQsqaUBKTNV-1" vertex="1">
          <mxGeometry x="320" y="285" width="100" height="80" as="geometry" />
        </mxCell>
        <mxCell id="WIyWlLk6GJQsqaUBKTNV-7" value="Plug in lamp" style="rounded=1;whiteSpace=wrap;html=1;fontSize=12;glass=0;strokeWidth=1;shadow=0;" parent="WIyWlLk6GJQsqaUBKTNV-1" vertex="1">
          <mxGeometry x="470" y="305" width="120" height="40" as="geometry" />
        </mxCell>
        <mxCell id="WIyWlLk6GJQsqaUBKTNV-8" value="No" style="rounded=0;html=1;jettySize=auto;orthogonalLoop=1;fontSize=11;endArrow=block;endFill=0;endSize=8;strokeWidth=1;shadow=0;labelBackgroundColor=none;edgeStyle=orthogonalEdgeStyle;" parent="WIyWlLk6GJQsqaUBKTNV-1" source="WIyWlLk6GJQsqaUBKTNV-10" target="WIyWlLk6GJQsqaUBKTNV-11" edge="1">
          <mxGeometry x="0.3333" y="20" relative="1" as="geometry">
            <mxPoint as="offset" />
          </mxGeometry>
        </mxCell>
        <mxCell id="WIyWlLk6GJQsqaUBKTNV-9" value="Yes" style="edgeStyle=orthogonalEdgeStyle;rounded=0;html=1;jettySize=auto;orthogonalLoop=1;fontSize=11;endArrow=block;endFill=0;endSize=8;strokeWidth=1;shadow=0;labelBackgroundColor=none;" parent="WIyWlLk6GJQsqaUBKTNV-1" source="WIyWlLk6GJQsqaUBKTNV-10" target="WIyWlLk6GJQsqaUBKTNV-12" edge="1">
          <mxGeometry y="10" relative="1" as="geometry">
            <mxPoint as="offset" />
          </mxGeometry>
        </mxCell>
        <mxCell id="WIyWlLk6GJQsqaUBKTNV-10" value="Bulb&lt;br&gt;burned out?" style="rhombus;whiteSpace=wrap;html=1;shadow=0;fontFamily=Helvetica;fontSize=12;align=center;strokeWidth=1;spacing=6;spacingTop=-4;" parent="WIyWlLk6GJQsqaUBKTNV-1" vertex="1">
          <mxGeometry x="320" y="405" width="100" height="80" as="geometry" />
        </mxCell>
        <mxCell id="WIyWlLk6GJQsqaUBKTNV-11" value="Repair Lamp" style="rounded=1;whiteSpace=wrap;html=1;fontSize=12;glass=0;strokeWidth=1;shadow=0;" parent="WIyWlLk6GJQsqaUBKTNV-1" vertex="1">
          <mxGeometry x="310" y="545" width="120" height="40" as="geometry" />
        </mxCell>
        <mxCell id="WIyWlLk6GJQsqaUBKTNV-12" value="Replace Bulb" style="rounded=1;whiteSpace=wrap;html=1;fontSize=12;glass=0;strokeWidth=1;shadow=0;" parent="WIyWlLk6GJQsqaUBKTNV-1" vertex="1">
          <mxGeometry x="470" y="425" width="120" height="40" as="geometry" />
        </mxCell>
        <mxCell id="mar_4wM57sWkOd30tIHt-1" style="edgeStyle=orthogonalEdgeStyle;rounded=0;orthogonalLoop=1;jettySize=auto;html=1;exitX=0.5;exitY=1;exitDx=0;exitDy=0;entryX=0.5;entryY=0;entryDx=0;entryDy=0;" edge="1" parent="WIyWlLk6GJQsqaUBKTNV-1" source="mar_4wM57sWkOd30tIHt-0" target="WIyWlLk6GJQsqaUBKTNV-3">
          <mxGeometry relative="1" as="geometry" />
        </mxCell>
        <mxCell id="mar_4wM57sWkOd30tIHt-0" value="START" style="ellipse;whiteSpace=wrap;html=1;" vertex="1" parent="WIyWlLk6GJQsqaUBKTNV-1">
          <mxGeometry x="310" y="-50" width="120" height="60" as="geometry" />
        </mxCell>
        <mxCell id="mar_4wM57sWkOd30tIHt-8" value="" style="rounded=0;whiteSpace=wrap;html=1;glass=0;sketch=0;strokeWidth=2;fillColor=none;" vertex="1" parent="WIyWlLk6GJQsqaUBKTNV-1">
          <mxGeometry x="-5020" y="30" width="4790" height="3740" as="geometry" />
        </mxCell>
        <mxCell id="mar_4wM57sWkOd30tIHt-9" value="&lt;font style=&quot;font-size: 24px&quot;&gt;Retail.ifp&lt;/font&gt;" style="rounded=0;whiteSpace=wrap;html=1;glass=0;sketch=0;strokeWidth=2;fillColor=none;" vertex="1" parent="WIyWlLk6GJQsqaUBKTNV-1">
          <mxGeometry x="-2540" y="-30" width="2310" height="60" as="geometry" />
        </mxCell>
        <mxCell id="WIyWlLk6GJQsqaUBKTNV-3" value="WorkingElements[1].DeviceAgent &amp;lt;- $$DEVICE_INFO.platform$" style="rounded=0;whiteSpace=wrap;html=1;fontSize=12;glass=0;strokeWidth=1;shadow=0;sketch=0;" parent="WIyWlLk6GJQsqaUBKTNV-1" vertex="1">
          <mxGeometry x="-1330" y="150" width="410" height="40" as="geometry" />
        </mxCell>
        <mxCell id="mar_4wM57sWkOd30tIHt-7" value="" style="group;fillColor=#d0cee2;strokeColor=#56517e;" vertex="1" connectable="0" parent="WIyWlLk6GJQsqaUBKTNV-1">
          <mxGeometry x="-2170" y="240" width="600" height="510" as="geometry" />
        </mxCell>
        <mxCell id="mar_4wM57sWkOd30tIHt-5" value="&lt;font style=&quot;font-size: 18px&quot;&gt;Initialise -&amp;gt; Initialise&lt;/font&gt;" style="rounded=0;whiteSpace=wrap;html=1;glass=0;sketch=0;strokeWidth=2;fillColor=none;" vertex="1" parent="mar_4wM57sWkOd30tIHt-7">
          <mxGeometry width="600" height="30" as="geometry" />
        </mxCell>
        <mxCell id="mar_4wM57sWkOd30tIHt-6" value="" style="rounded=0;whiteSpace=wrap;html=1;glass=0;sketch=0;strokeWidth=2;fillColor=none;" vertex="1" parent="mar_4wM57sWkOd30tIHt-7">
          <mxGeometry y="30" width="600" height="480" as="geometry" />
        </mxCell>
        <mxCell id="mar_4wM57sWkOd30tIHt-4" value="WorkingElements[1].DeviceAgent &amp;lt;- $$DEVICE_INFO.platform$" style="rounded=0;whiteSpace=wrap;html=1;fontSize=12;glass=0;strokeWidth=1;shadow=0;sketch=0;" vertex="1" parent="mar_4wM57sWkOd30tIHt-7">
          <mxGeometry x="90" y="70" width="410" height="40" as="geometry" />
        </mxCell>
        <mxCell id="mar_4wM57sWkOd30tIHt-12" value="Pre Phase Process Level Rule" style="text;html=1;strokeColor=none;fillColor=none;align=center;verticalAlign=middle;whiteSpace=wrap;rounded=0;glass=0;sketch=0;" vertex="1" parent="WIyWlLk6GJQsqaUBKTNV-1">
          <mxGeometry x="-1330" y="130" width="180" height="20" as="geometry" />
        </mxCell>
        <mxCell id="mar_4wM57sWkOd30tIHt-16" value="" style="rounded=1;whiteSpace=wrap;html=1;glass=0;sketch=0;strokeWidth=2;fillColor=#bac8d3;strokeColor=#23445d;" vertex="1" parent="WIyWlLk6GJQsqaUBKTNV-1">
          <mxGeometry x="-1430" y="350" width="1180" height="1320" as="geometry" />
        </mxCell>
        <mxCell id="mar_4wM57sWkOd30tIHt-15" value="&lt;font style=&quot;font-size: 18px&quot;&gt;Rule Editor&lt;/font&gt;" style="rounded=1;whiteSpace=wrap;html=1;glass=0;sketch=0;strokeWidth=2;fillColor=none;" vertex="1" parent="WIyWlLk6GJQsqaUBKTNV-1">
          <mxGeometry x="-1050" y="365" width="370" height="30" as="geometry" />
        </mxCell>
        <mxCell id="mar_4wM57sWkOd30tIHt-35" value="" style="group" vertex="1" connectable="0" parent="WIyWlLk6GJQsqaUBKTNV-1">
          <mxGeometry x="-1278" y="500" width="865" height="140" as="geometry" />
        </mxCell>
        <mxCell id="mar_4wM57sWkOd30tIHt-27" value="" style="group" vertex="1" connectable="0" parent="mar_4wM57sWkOd30tIHt-35">
          <mxGeometry x="130" width="600" height="140" as="geometry" />
        </mxCell>
        <mxCell id="mar_4wM57sWkOd30tIHt-20" value="$$ScreenState[1].boxMode$ == &#39;Y&#39;" style="rhombus;whiteSpace=wrap;html=1;rounded=1;glass=0;sketch=0;strokeWidth=2;" vertex="1" parent="mar_4wM57sWkOd30tIHt-27">
          <mxGeometry x="130" width="340" height="50" as="geometry" />
        </mxCell>
        <mxCell id="mar_4wM57sWkOd30tIHt-21" value="Set Http Session Variable value BOX_VIEW from tc-box-on" style="rounded=0;whiteSpace=wrap;html=1;glass=0;sketch=0;strokeWidth=2;" vertex="1" parent="mar_4wM57sWkOd30tIHt-35">
          <mxGeometry y="5" width="220" height="40" as="geometry" />
        </mxCell>
        <mxCell id="mar_4wM57sWkOd30tIHt-25" style="edgeStyle=orthogonalEdgeStyle;rounded=0;orthogonalLoop=1;jettySize=auto;html=1;entryX=1;entryY=0.5;entryDx=0;entryDy=0;strokeColor=#00CC00;exitX=0;exitY=0.5;exitDx=0;exitDy=0;" edge="1" parent="mar_4wM57sWkOd30tIHt-35" source="mar_4wM57sWkOd30tIHt-20" target="mar_4wM57sWkOd30tIHt-21">
          <mxGeometry relative="1" as="geometry" />
        </mxCell>
        <mxCell id="mar_4wM57sWkOd30tIHt-22" value="Set Http Session Variable value BOX_VIEW from &#39;&#39;" style="rounded=0;whiteSpace=wrap;html=1;glass=0;sketch=0;strokeWidth=2;" vertex="1" parent="mar_4wM57sWkOd30tIHt-35">
          <mxGeometry x="645" y="5" width="220" height="40" as="geometry" />
        </mxCell>
        <mxCell id="mar_4wM57sWkOd30tIHt-24" style="edgeStyle=orthogonalEdgeStyle;rounded=0;orthogonalLoop=1;jettySize=auto;html=1;strokeColor=#CC0000;exitX=1;exitY=0.5;exitDx=0;exitDy=0;" edge="1" parent="mar_4wM57sWkOd30tIHt-35" source="mar_4wM57sWkOd30tIHt-20">
          <mxGeometry relative="1" as="geometry">
            <mxPoint x="645" y="25" as="targetPoint" />
          </mxGeometry>
        </mxCell>
        <mxCell id="mar_4wM57sWkOd30tIHt-36" value="" style="group" vertex="1" connectable="0" parent="WIyWlLk6GJQsqaUBKTNV-1">
          <mxGeometry x="-1278" y="650" width="865" height="140" as="geometry" />
        </mxCell>
        <mxCell id="mar_4wM57sWkOd30tIHt-37" value="" style="group" vertex="1" connectable="0" parent="mar_4wM57sWkOd30tIHt-36">
          <mxGeometry x="130" width="600" height="140" as="geometry" />
        </mxCell>
        <mxCell id="mar_4wM57sWkOd30tIHt-38" value="$$ScreenState[1].compactMode$ == &#39;Y&#39;" style="rhombus;whiteSpace=wrap;html=1;rounded=1;glass=0;sketch=0;strokeWidth=2;" vertex="1" parent="mar_4wM57sWkOd30tIHt-37">
          <mxGeometry x="130" width="340" height="50" as="geometry" />
        </mxCell>
        <mxCell id="mar_4wM57sWkOd30tIHt-39" value="Set Http Session Variable value DENSITY from tc-compact" style="rounded=0;whiteSpace=wrap;html=1;glass=0;sketch=0;strokeWidth=2;" vertex="1" parent="mar_4wM57sWkOd30tIHt-36">
          <mxGeometry y="5" width="220" height="40" as="geometry" />
        </mxCell>
        <mxCell id="mar_4wM57sWkOd30tIHt-40" style="edgeStyle=orthogonalEdgeStyle;rounded=0;orthogonalLoop=1;jettySize=auto;html=1;entryX=1;entryY=0.5;entryDx=0;entryDy=0;strokeColor=#00CC00;exitX=0;exitY=0.5;exitDx=0;exitDy=0;" edge="1" parent="mar_4wM57sWkOd30tIHt-36" source="mar_4wM57sWkOd30tIHt-38" target="mar_4wM57sWkOd30tIHt-39">
          <mxGeometry relative="1" as="geometry" />
        </mxCell>
        <mxCell id="mar_4wM57sWkOd30tIHt-41" value="Set Http Session Variable value DENSITY from &#39;&#39;" style="rounded=0;whiteSpace=wrap;html=1;glass=0;sketch=0;strokeWidth=2;" vertex="1" parent="mar_4wM57sWkOd30tIHt-36">
          <mxGeometry x="645" y="5" width="220" height="40" as="geometry" />
        </mxCell>
        <mxCell id="mar_4wM57sWkOd30tIHt-42" style="edgeStyle=orthogonalEdgeStyle;rounded=0;orthogonalLoop=1;jettySize=auto;html=1;strokeColor=#CC0000;exitX=1;exitY=0.5;exitDx=0;exitDy=0;" edge="1" parent="mar_4wM57sWkOd30tIHt-36" source="mar_4wM57sWkOd30tIHt-38">
          <mxGeometry relative="1" as="geometry">
            <mxPoint x="645" y="25" as="targetPoint" />
          </mxGeometry>
        </mxCell>
        <mxCell id="mar_4wM57sWkOd30tIHt-43" value="" style="group" vertex="1" connectable="0" parent="WIyWlLk6GJQsqaUBKTNV-1">
          <mxGeometry x="-1278" y="790" width="865" height="140" as="geometry" />
        </mxCell>
        <mxCell id="mar_4wM57sWkOd30tIHt-44" value="" style="group" vertex="1" connectable="0" parent="mar_4wM57sWkOd30tIHt-43">
          <mxGeometry x="130" width="600" height="140" as="geometry" />
        </mxCell>
        <mxCell id="mar_4wM57sWkOd30tIHt-45" value="$$ScreenState[1].lockHeader$ == &#39;Y&#39;" style="rhombus;whiteSpace=wrap;html=1;rounded=1;glass=0;sketch=0;strokeWidth=2;" vertex="1" parent="mar_4wM57sWkOd30tIHt-44">
          <mxGeometry x="130" width="340" height="50" as="geometry" />
        </mxCell>
        <mxCell id="mar_4wM57sWkOd30tIHt-46" value="Set Http Session Variable value HEADER_LOCKED from tc-header-locked" style="rounded=0;whiteSpace=wrap;html=1;glass=0;sketch=0;strokeWidth=2;" vertex="1" parent="mar_4wM57sWkOd30tIHt-43">
          <mxGeometry x="-20" y="5" width="240" height="40" as="geometry" />
        </mxCell>
        <mxCell id="mar_4wM57sWkOd30tIHt-47" style="edgeStyle=orthogonalEdgeStyle;rounded=0;orthogonalLoop=1;jettySize=auto;html=1;entryX=1;entryY=0.5;entryDx=0;entryDy=0;strokeColor=#00CC00;exitX=0;exitY=0.5;exitDx=0;exitDy=0;" edge="1" parent="mar_4wM57sWkOd30tIHt-43" source="mar_4wM57sWkOd30tIHt-45" target="mar_4wM57sWkOd30tIHt-46">
          <mxGeometry relative="1" as="geometry" />
        </mxCell>
        <mxCell id="mar_4wM57sWkOd30tIHt-48" value="Set Http Session Variable value HEADER_LOCKED from &#39;&#39;" style="rounded=0;whiteSpace=wrap;html=1;glass=0;sketch=0;strokeWidth=2;" vertex="1" parent="mar_4wM57sWkOd30tIHt-43">
          <mxGeometry x="645" y="5" width="220" height="40" as="geometry" />
        </mxCell>
        <mxCell id="mar_4wM57sWkOd30tIHt-49" style="edgeStyle=orthogonalEdgeStyle;rounded=0;orthogonalLoop=1;jettySize=auto;html=1;strokeColor=#CC0000;exitX=1;exitY=0.5;exitDx=0;exitDy=0;" edge="1" parent="mar_4wM57sWkOd30tIHt-43" source="mar_4wM57sWkOd30tIHt-45">
          <mxGeometry relative="1" as="geometry">
            <mxPoint x="645" y="25" as="targetPoint" />
          </mxGeometry>
        </mxCell>
        <mxCell id="mar_4wM57sWkOd30tIHt-50" value="" style="group" vertex="1" connectable="0" parent="WIyWlLk6GJQsqaUBKTNV-1">
          <mxGeometry x="-1278" y="920" width="865" height="140" as="geometry" />
        </mxCell>
        <mxCell id="mar_4wM57sWkOd30tIHt-51" value="" style="group" vertex="1" connectable="0" parent="mar_4wM57sWkOd30tIHt-50">
          <mxGeometry x="130" width="600" height="140" as="geometry" />
        </mxCell>
        <mxCell id="mar_4wM57sWkOd30tIHt-52" value="$$ScreenState[1].fontSize$ != &#39;&#39;" style="rhombus;whiteSpace=wrap;html=1;rounded=1;glass=0;sketch=0;strokeWidth=2;" vertex="1" parent="mar_4wM57sWkOd30tIHt-51">
          <mxGeometry x="130" width="340" height="50" as="geometry" />
        </mxCell>
        <mxCell id="mar_4wM57sWkOd30tIHt-53" value="Set Http Session Variable value FONT_SIZE from ScreenState[1].fontSize" style="rounded=0;whiteSpace=wrap;html=1;glass=0;sketch=0;strokeWidth=2;" vertex="1" parent="mar_4wM57sWkOd30tIHt-50">
          <mxGeometry x="-20" y="5" width="240" height="40" as="geometry" />
        </mxCell>
        <mxCell id="mar_4wM57sWkOd30tIHt-54" style="edgeStyle=orthogonalEdgeStyle;rounded=0;orthogonalLoop=1;jettySize=auto;html=1;entryX=1;entryY=0.5;entryDx=0;entryDy=0;strokeColor=#00CC00;exitX=0;exitY=0.5;exitDx=0;exitDy=0;" edge="1" parent="mar_4wM57sWkOd30tIHt-50" source="mar_4wM57sWkOd30tIHt-52" target="mar_4wM57sWkOd30tIHt-53">
          <mxGeometry relative="1" as="geometry" />
        </mxCell>
        <mxCell id="mar_4wM57sWkOd30tIHt-55" value="Set Http Session Variable value FONT_SIZE from &#39;&#39;" style="rounded=0;whiteSpace=wrap;html=1;glass=0;sketch=0;strokeWidth=2;" vertex="1" parent="mar_4wM57sWkOd30tIHt-50">
          <mxGeometry x="645" y="5" width="220" height="40" as="geometry" />
        </mxCell>
        <mxCell id="mar_4wM57sWkOd30tIHt-56" style="edgeStyle=orthogonalEdgeStyle;rounded=0;orthogonalLoop=1;jettySize=auto;html=1;strokeColor=#CC0000;exitX=1;exitY=0.5;exitDx=0;exitDy=0;" edge="1" parent="mar_4wM57sWkOd30tIHt-50" source="mar_4wM57sWkOd30tIHt-52">
          <mxGeometry relative="1" as="geometry">
            <mxPoint x="645" y="25" as="targetPoint" />
          </mxGeometry>
        </mxCell>
        <mxCell id="mar_4wM57sWkOd30tIHt-61" value="" style="group;fillColor=#d0cee2;strokeColor=#56517e;" vertex="1" connectable="0" parent="WIyWlLk6GJQsqaUBKTNV-1">
          <mxGeometry x="-7130" y="-6486" width="370" height="256" as="geometry" />
        </mxCell>
        <mxCell id="mar_4wM57sWkOd30tIHt-62" value="&lt;font style=&quot;font-size: 18px&quot;&gt;Initialise -&amp;gt; Initialise&lt;/font&gt;" style="rounded=0;whiteSpace=wrap;html=1;glass=0;sketch=0;strokeWidth=2;fillColor=none;" vertex="1" parent="mar_4wM57sWkOd30tIHt-61">
          <mxGeometry width="370" height="15.058823529411764" as="geometry" />
        </mxCell>
        <mxCell id="mar_4wM57sWkOd30tIHt-63" value="" style="rounded=0;whiteSpace=wrap;html=1;glass=0;sketch=0;strokeWidth=2;fillColor=none;" vertex="1" parent="mar_4wM57sWkOd30tIHt-61">
          <mxGeometry y="15.058823529411764" width="370" height="240.94117647058823" as="geometry" />
        </mxCell>
        <mxCell id="mar_4wM57sWkOd30tIHt-66" value="&lt;font style=&quot;font-size: 72px&quot;&gt;LEGEND&lt;/font&gt;" style="text;html=1;strokeColor=none;fillColor=none;align=center;verticalAlign=middle;whiteSpace=wrap;rounded=0;glass=0;sketch=0;fontSize=372;" vertex="1" parent="WIyWlLk6GJQsqaUBKTNV-1">
          <mxGeometry x="-5440" y="-7260" width="2030" height="420" as="geometry" />
        </mxCell>
        <mxCell id="mar_4wM57sWkOd30tIHt-64" value="WorkingElements[1].DeviceAgent &amp;lt;- $$DEVICE_INFO.platform$" style="rounded=0;whiteSpace=wrap;html=1;fontSize=12;glass=0;strokeWidth=1;shadow=0;sketch=0;" vertex="1" parent="WIyWlLk6GJQsqaUBKTNV-1">
          <mxGeometry x="-8490" y="-6380" width="410" height="40" as="geometry" />
        </mxCell>
        <mxCell id="mar_4wM57sWkOd30tIHt-67" style="edgeStyle=orthogonalEdgeStyle;rounded=0;orthogonalLoop=1;jettySize=auto;html=1;exitX=0.5;exitY=1;exitDx=0;exitDy=0;strokeColor=#CC0000;" edge="1" parent="WIyWlLk6GJQsqaUBKTNV-1" source="mar_4wM57sWkOd30tIHt-64" target="mar_4wM57sWkOd30tIHt-64">
          <mxGeometry relative="1" as="geometry" />
        </mxCell>
        <mxCell id="mar_4wM57sWkOd30tIHt-70" value="&lt;font style=&quot;font-size: 172px&quot;&gt;RULES&lt;/font&gt;" style="text;html=1;strokeColor=none;fillColor=none;align=center;verticalAlign=middle;whiteSpace=wrap;rounded=0;glass=0;sketch=0;" vertex="1" parent="WIyWlLk6GJQsqaUBKTNV-1">
          <mxGeometry x="-8780" y="-6610" width="550" height="100" as="geometry" />
        </mxCell>
        <mxCell id="mar_4wM57sWkOd30tIHt-72" style="edgeStyle=orthogonalEdgeStyle;rounded=0;orthogonalLoop=1;jettySize=auto;html=1;entryX=0;entryY=0.5;entryDx=0;entryDy=0;" edge="1" parent="WIyWlLk6GJQsqaUBKTNV-1" source="mar_4wM57sWkOd30tIHt-71" target="mar_4wM57sWkOd30tIHt-64">
          <mxGeometry relative="1" as="geometry" />
        </mxCell>
        <mxCell id="mar_4wM57sWkOd30tIHt-71" value="Normal Set Value Rule" style="text;html=1;strokeColor=none;fillColor=none;align=center;verticalAlign=middle;whiteSpace=wrap;rounded=0;glass=0;sketch=0;" vertex="1" parent="WIyWlLk6GJQsqaUBKTNV-1">
          <mxGeometry x="-8854" y="-6370" width="130" height="20" as="geometry" />
        </mxCell>
        <mxCell id="mar_4wM57sWkOd30tIHt-74" value="" style="endArrow=none;html=1;strokeColor=#000000;exitX=0.137;exitY=0.53;exitDx=0;exitDy=0;exitPerimeter=0;entryX=0.137;entryY=0.002;entryDx=0;entryDy=0;entryPerimeter=0;" edge="1" parent="WIyWlLk6GJQsqaUBKTNV-1" source="mar_4wM57sWkOd30tIHt-65" target="mar_4wM57sWkOd30tIHt-65">
          <mxGeometry width="50" height="50" relative="1" as="geometry">
            <mxPoint x="-7840" y="-6640" as="sourcePoint" />
            <mxPoint x="-7790" y="-6690" as="targetPoint" />
          </mxGeometry>
        </mxCell>
        <mxCell id="mar_4wM57sWkOd30tIHt-76" value="" style="endArrow=none;html=1;strokeColor=#000000;exitX=0.137;exitY=0.53;exitDx=0;exitDy=0;exitPerimeter=0;entryX=0.137;entryY=0.002;entryDx=0;entryDy=0;entryPerimeter=0;" edge="1" parent="WIyWlLk6GJQsqaUBKTNV-1">
          <mxGeometry width="50" height="50" relative="1" as="geometry">
            <mxPoint x="-5660" y="-4499.799999999999" as="sourcePoint" />
            <mxPoint x="-5660" y="-6791.32" as="targetPoint" />
          </mxGeometry>
        </mxCell>
      </root>
    </mxGraphModel>
  </diagram>
</mxfile>
